# xmcd
#
# Track frame offsets: 
#        150
#        24864
#        39777
#        55670
#        71514
#        90144
#        109472
#        122249
#        140486
#        158079
#        172115
#        192802
#        211149
#        230878
#        248258
#        267580
#        284894
#        299956
#        313403
#        331533
#        346383
#
# Disc length: 4793 seconds
#
# Revision: 1
# Processed by: cddbd v1.5.2PL0 Copyright (c) Steve Scherf et al.
# Submitted via: ExactAudioCopy v1.1
#
DISCID=3d12b715
DTITLE=Various Artist - Kuschelrock 32 [CD2)
DYEAR=2018
DGENRE=Pop, Rock
TTITLE0=Coldplay - Warning Sign
TTITLE1=Céline Dion - Ashes
TTITLE2=Sia - Big Girls Cry
TTITLE3=Tom Odell feat. Alice Merton - Half As Good As You
TTITLE4=Portugal. The Man - So Young
TTITLE5=Fray - Never Say Never
TTITLE6=Ella Henderson - Yours
TTITLE7=Labrinth - Jealous (Radio Edit)
TTITLE8=Sade - Morning Bird
TTITLE9=Annie Lennox - A Thousand Beautiful Things
TTITLE10=Bruce Springsteen - Back In Your Arms
TTITLE11=Air Supply - Goodbye
TTITLE12=Toto - I Will Remember
TTITLE13=Nickelback - Home
TTITLE14=Evanescence feat. Lindsey Stirling - Hi-Lo
TTITLE15=Kodaline - All I Want
TTITLE16=Tyler Shaw - With You
TTITLE17=Zara Larsson - I Can't Fall In Love Without You
TTITLE18=Jason Mraz - In Won'tT Give Up
TTITLE19=Grace Grundy - Happier
TTITLE20=Dionne Warwick - Walk On By
EXTD=
EXTT0=
EXTT1=
EXTT2=
EXTT3=
EXTT4=
EXTT5=
EXTT6=
EXTT7=
EXTT8=
EXTT9=
EXTT10=
EXTT11=
EXTT12=
EXTT13=
EXTT14=
EXTT15=
EXTT16=
EXTT17=
EXTT18=
EXTT19=
EXTT20=
PLAYORDER=
